<svg width="45" height="43" viewBox="0 0 45 43" fill="none" xmlns="http://www.w3.org/2000/svg">
<path fill-rule="evenodd" clip-rule="evenodd" d="M17.9949 1.5C16.8402 -0.499998 13.9534 -0.500002 12.7987 1.5L2.40641 19.5C1.25171 21.5 2.69508 24 5.00448 24H8.77798L0.4064 38.5C-0.7483 40.5 0.69507 43 3.00447 43H23.7891C26.0985 43 27.5419 40.5 26.3872 38.5L24.3664 35H41.7891C44.0985 35 45.5419 32.5 44.3872 30.5L33.9949 12.5C32.8402 10.5 29.9534 10.5 28.7987 12.5L26.5722 16.3564L17.9949 1.5ZM22.1592 24L26.5722 16.3564L28.3872 19.5C29.5419 21.5 28.0985 24 25.7891 24H22.1592ZM20.0874 27.5885L22.1592 24H18.0156L15.9949 20.5C14.8402 18.5 11.9534 18.5 10.7987 20.5L8.77798 24H18.0156L20.0874 27.5885ZM20.0874 27.5885L24.3664 35H21.0045C18.6951 35 17.2517 32.5 18.4064 30.5L20.0874 27.5885Z" fill="white"/>
</svg>
